#!OML:ASF E:\Steps\Project 1\Capture day 1\Session 2\Subject.ASF
:FULLY-SPECIFIED
:DEGREES
287
root 11.7217 17.3908 17.9423 -152.753 4.36501 183.766
lowerback -19.0537 -3.42845 -7.6283
upperback 2.48397 -2.5158 -0.929581
thorax 13.9202 -1.65744 2.51701
lowerneck -1.02013 -0.938495 -0.912939
upperneck 24.0768 -0.155011 4.86334
head 7.54732 1.00428 1.84653
rclavicle -4.77083e-015 -6.83819e-014
rhumerus -43.3654 -14.9301 -72.9415
rradius 41.1067
rwrist -3.70881
rhand -6.29232 -53.468
rfingers 7.12502
rthumb 19.5513 -82.505
lclavicle -4.77083e-015 -6.83819e-014
lhumerus -30.3236 3.11649 77.4165
lradius 30.5884
lwrist 1.04736
lhand -22.1702 -11.2644
lfingers 7.12502
lthumb 4.24443 18.673
rfemur -55.4262 7.00161 21.5004
rtibia 62.757
rfoot -25.9616 -6.35114
rtoes -33.6311
lfemur -28.1951 -8.8882 -15.5619
ltibia 8.16934
lfoot -6.18725 4.05381
ltoes -33.0716
288
root 11.7178 17.3859 17.9348 -152.748 4.3401 183.692
lowerback -19.2579 -3.45418 -7.60586
upperback 2.6976 -2.52135 -0.980638
thorax 14.2917 -1.66996 2.42857
lowerneck -1.51386 -0.886132 -0.83015
upperneck 24.0666 -0.143849 4.86668
head 7.63149 1.00432 1.8352
rclavicle 3.57812e-014 -3.18055e-015
rhumerus -42.9681 -14.9468 -73.2826
rradius 41.1252
rwrist -4.04342
rhand -6.48327 -53.8466
rfingers 7.12502
rthumb 19.3677 -82.9021
lclavicle 3.57812e-014 -3.18055e-015
lhumerus -29.8505 3.41701 77.2881
lradius 30.4355
lwrist 0.860354
lhand -22.2477 -11.2073
lfingers 7.12502
lthumb 4.1696 18.7316
rfemur -55.0651 7.06954 21.6027
rtibia 61.4713
rfoot -25.5805 -5.96158
rtoes -33.2064
lfemur -28.2048 -8.93713 -15.6467
ltibia 8.24301
lfoot -6.17167 3.84629
ltoes -31.2485
289
root 11.7139 17.3827 17.9287 -152.801 4.29392 183.64
lowerback -19.0687 -3.42438 -7.66526
upperback 2.66276 -2.48781 -0.976547
thorax 14.1377 -1.65568 2.48613
lowerneck -1.64863 -0.922516 -0.702582
upperneck 24.1469 -0.191832 4.79322
head 7.6842 0.989896 1.78843
rclavicle 7.15625e-015 2.06736e-014
rhumerus -43.1344 -14.9026 -73.3943
rradius 41.2694
rwrist -4.46768
rhand -7.17509 -52.9553
rfingers 7.12502
rthumb 18.7024 -82.0763
lclavicle 7.15625e-015 2.06736e-014
lhumerus -29.8609 3.41696 77.3078
lradius 30.3395
lwrist 0.698413
lhand -22.3784 -11.3031
lfingers 7.12502
lthumb 4.04333 18.6383
rfemur -54.2847 7.0018 21.7542
rtibia 59.6779
rfoot -25.0745 -5.26273
rtoes -32.337
lfemur -28.1292 -8.86733 -15.7645
ltibia 8.25836
lfoot -6.19742 3.65934
ltoes -31.4792
290
root 11.7097 17.3792 17.9216 -152.839 4.25538 183.606
lowerback -18.9927 -3.39578 -7.66579
upperback 2.62226 -2.4577 -0.980002
thorax 14.041 -1.63837 2.49664
lowerneck -1.60178 -0.919945 -0.65973
upperneck 24.1444 -0.186827 4.81315
head 7.67481 1.00067 1.7881
rclavicle 4.29375e-014 3.97569e-014
rhumerus -43.2968 -14.9586 -73.4226
rradius 41.2309
rwrist -4.26227
rhand -7.11078 -52.6853
rfingers 7.12502
rthumb 18.7643 -81.8002
lclavicle 4.29375e-014 3.97569e-014
lhumerus -29.9125 3.45872 77.2989
lradius 30.2328
lwrist 0.580121
lhand -22.6055 -11.6405
lfingers 7.12502
lthumb 3.82411 18.3049
rfemur -52.9279 6.67032 22.0749
rtibia 56.6021
rfoot -23.9609 -4.85462
rtoes -33.0246
lfemur -28.0018 -8.7095 -15.883
ltibia 8.10827
lfoot -6.02503 3.4152
ltoes -31.4206
291
root 11.7057 17.3735 17.9136 -152.794 4.2283 183.514
lowerback -19.0373 -3.36677 -7.66465
upperback 2.64301 -2.40578 -1.02464
thorax 14.084 -1.61272 2.45972
lowerneck -1.7904 -0.935782 -0.598128
upperneck 24.2 -0.226502 4.82432
head 7.72847 0.98897 1.7807
rclavicle -3.10104e-014 -9.54166e-015
rhumerus -43.2048 -15.2886 -73.4271
rradius 40.9846
rwrist -3.84202
rhand -6.63797 -52.324
rfingers 7.12502
rthumb 19.219 -81.3943
lclavicle -3.10104e-014 -9.54166e-015
lhumerus -29.7648 3.4769 77.2672
lradius 30.2023
lwrist 0.697526
lhand -22.4487 -11.814
lfingers 7.12502
lthumb 3.97546 18.1286
rfemur -52.4988 6.63759 22.1943
rtibia 55.2583
rfoot -23.7417 -4.68449
rtoes -33.5929
lfemur -27.9741 -8.69232 -16.0176
ltibia 7.96019
lfoot -5.88437 3.27195
ltoes -30.8445
292
root 11.702 17.3682 17.906 -152.732 4.18853 183.362
lowerback -19.2212 -3.43415 -7.77104
upperback 2.42084 -2.44832 -1.04118
thorax 13.9408 -1.62518 2.48935
lowerneck -1.03294 -0.945685 -0.589368
upperneck 24.1565 -0.139477 4.72165
head 7.57621 1.03831 1.74807
rclavicle 7.15625e-015 5.08889e-014
rhumerus -43.697 -14.9718 -73.4991
rradius 41.0171
rwrist -4.02014
rhand -6.99305 -52.0547
rfingers 7.12502
rthumb 18.8775 -81.1586
lclavicle 7.15625e-015 5.08889e-014
lhumerus -30.3212 3.48666 77.1891
lradius 30.3729
lwrist 0.781596
lhand -22.2875 -11.5036
lfingers 7.12502
lthumb 4.13111 18.4361
rfemur -51.9971 6.71238 22.1267
rtibia 53.8919
rfoot -23.6062 -4.59086
rtoes -34.2264
lfemur -28.0266 -8.79045 -16.1906
ltibia 7.92372
lfoot -5.87649 3.25319
ltoes -30.9382
293
root 11.6982 17.3645 17.8968 -152.739 4.14394 183.202
lowerback -19.2172 -3.43734 -7.83405
upperback 2.62829 -2.42833 -1.06951
thorax 14.1845 -1.63259 2.49112
lowerneck -1.92495 -0.897637 -0.582607
upperneck 24.3709 -0.139468 4.71626
head 7.80767 1.03143 1.75322
rclavicle -3.18055e-014 -7.63333e-014
rhumerus -43.152 -15.0578 -73.7795
rradius 41.0036
rwrist -4.28233
rhand -7.4429 -53.1579
rfingers 7.12502
rthumb 18.4448 -82.3034
lclavicle -3.18055e-014 -7.63333e-014
lhumerus -29.7178 3.6206 77.2205
lradius 30.3296
lwrist 0.873181
lhand -22.4084 -11.2479
lfingers 7.12502
lthumb 4.01442 18.694
rfemur -51.3378 6.86875 22.0069
rtibia 52.4096
rfoot -23.5182 -4.54519
rtoes -34.9404
lfemur -28.0253 -8.84051 -16.3907
ltibia 7.96152
lfoot -5.93279 3.13266
ltoes -30.6255
294
root 11.6936 17.359 17.8838 -152.766 4.10255 183.093
lowerback -19.2916 -3.42934 -7.85482
upperback 2.63858 -2.39864 -1.09753
thorax 14.2376 -1.61969 2.47751
lowerneck -1.93201 -0.900059 -0.557521
upperneck 24.3536 -0.143633 4.7071
head 7.80325 1.03064 1.74529
rclavicle -7.15625e-015 -2.06736e-014
rhumerus -43.1694 -15.3077 -73.6974
rradius 40.8848
rwrist -4.2184
rhand -7.01117 -54.5854
rfingers 7.12502
rthumb 18.8601 -83.691
lclavicle -7.15625e-015 -2.06736e-014
lhumerus -29.6878 3.51307 77.2606
lradius 30.403
lwrist 1.07119
lhand -22.6821 -11.2734
lfingers 7.12502
lthumb 3.75013 18.6733
rfemur -50.6309 7.0168 21.9279
rtibia 50.8896
rfoot -23.2811 -4.13333
rtoes -34.9159
lfemur -27.9404 -8.78757 -16.5798
ltibia 7.95001
lfoot -5.94889 2.8891
ltoes -30.0567
295
root 11.6889 17.3523 17.8707 -152.745 4.06069 183.056
lowerback -19.4632 -3.42211 -7.77435
upperback 2.58074 -2.38557 -1.13031
thorax 14.2632 -1.60247 2.39523
lowerneck -1.63459 -0.93843 -0.519713
upperneck 24.2779 -0.179604 4.72228
head 7.72551 1.02133 1.7387
rclavicle 3.49861e-014 1.59028e-014
rhumerus -43.3891 -15.3152 -73.7252
rradius 40.8508
rwrist -4.29925
rhand -6.77325 -54.5356
rfingers 7.12502
rthumb 19.0889 -83.6188
lclavicle 3.49861e-014 1.59028e-014
lhumerus -29.8935 3.46997 77.2151
lradius 30.5633
lwrist 1.06878
lhand -22.8843 -11.2659
lfingers 7.12502
lthumb 3.55486 18.6842
rfemur -49.9704 7.19409 21.889
rtibia 49.3927
rfoot -22.9996 -3.66087
rtoes -34.6202
lfemur -27.8599 -8.77871 -16.6731
ltibia 7.83567
lfoot -5.91812 2.82296
ltoes -30.572
296
root 11.6858 17.3471 17.8575 -152.768 4.04108 183.03
lowerback -19.5752 -3.39929 -7.73438
upperback 2.4853 -2.35162 -1.14723
thorax 14.2094 -1.57711 2.36433
lowerneck -1.28725 -1.00258 -0.461034
upperneck 24.3257 -0.221302 4.70026
head 7.68074 1.01806 1.71916
rclavicle -1.59028e-014 -7.95139e-015
rhumerus -43.7738 -14.9382 -73.965
rradius 41.127
rwrist -4.96114
rhand -7.5385 -53.3488
rfingers 7.12502
rthumb 18.3528 -82.503
lclavicle -1.59028e-014 -7.95139e-015
lhumerus -30.1582 3.41562 77.1792
lradius 30.6941
lwrist 1.17877
lhand -22.7048 -11.0918
lfingers 7.12502
lthumb 3.72821 18.8554
rfemur -49.2199 7.48943 21.8035
rtibia 47.8792
rfoot -22.9608 -3.35603
rtoes -33.9302
lfemur -27.745 -8.72894 -16.7631
ltibia 7.74185
lfoot -5.9075 2.77141
ltoes -31.0605
